solid Knob
facet normal 0.0 0.0 1.0
  outer loop
    vertex 35.0 49.000000000000014 7.000000000000001
    vertex 25.0 52.00000000000001 7.000000000000001
    vertex 25.0 49.000000000000014 7.000000000000001
  endloop
endfacet
facet normal 0.0 0.0 1.0
  outer loop
    vertex 25.0 52.00000000000001 7.000000000000001
    vertex 35.0 49.000000000000014 7.000000000000001
    vertex 35.0 52.00000000000001 7.000000000000001
  endloop
endfacet
facet normal 1.0 0.0 0.0
  outer loop
    vertex 25.0 52.00000000000001 7.000000000000001
    vertex 25.0 49.000000000000014 20.0
    vertex 25.0 49.000000000000014 7.000000000000001
  endloop
endfacet
facet normal 1.0 0.0 0.0
  outer loop
    vertex 25.0 49.000000000000014 20.0
    vertex 25.0 52.00000000000001 7.000000000000001
    vertex 25.0 52.00000000000001 20.0
  endloop
endfacet
facet normal -0.0 -0.0 1.0
  outer loop
    vertex 7.999999999999999 52.00000000000001 20.0
    vertex 18.0 49.000000000000014 20.0
    vertex 25.0 52.00000000000001 20.0
  endloop
endfacet
facet normal -0.0 -0.0 1.0
  outer loop
    vertex 18.0 49.000000000000014 20.0
    vertex 7.999999999999999 52.00000000000001 20.0
    vertex 11.0 42.000000000000014 20.0
  endloop
endfacet
facet normal -0.0 -0.0 1.0
  outer loop
    vertex 11.0 42.000000000000014 20.0
    vertex 7.999999999999999 52.00000000000001 20.0
    vertex 11.0 17.999999999999996 20.0
  endloop
endfacet
facet normal -0.0 -0.0 1.0
  outer loop
    vertex 18.0 49.000000000000014 20.0
    vertex 11.0 42.000000000000014 20.0
    vertex 18.0 42.000000000000014 20.0
  endloop
endfacet
facet normal -0.0 -0.0 1.0
  outer loop
    vertex 25.0 52.00000000000001 20.0
    vertex 18.0 49.000000000000014 20.0
    vertex 25.0 49.000000000000014 20.0
  endloop
endfacet
facet normal -0.0 -0.0 1.0
  outer loop
    vertex 49.000000000000014 42.0 20.0
    vertex 42.00000000000001 49.000000000000014 20.0
    vertex 42.00000000000001 42.0 20.0
  endloop
endfacet
facet normal -0.0 -0.0 1.0
  outer loop
    vertex 7.999999999999999 7.999999999999999 20.0
    vertex 11.0 17.999999999999996 20.0
    vertex 7.999999999999999 52.00000000000001 20.0
  endloop
endfacet
facet normal -0.0 -0.0 1.0
  outer loop
    vertex 11.0 17.999999999999996 20.0
    vertex 7.999999999999999 7.999999999999999 20.0
    vertex 18.0 11.0 20.0
  endloop
endfacet
facet normal -0.0 -0.0 1.0
  outer loop
    vertex 18.0 11.0 20.0
    vertex 7.999999999999999 7.999999999999999 20.0
    vertex 52.00000000000001 7.999999999999999 20.0
  endloop
endfacet
facet normal -0.0 -0.0 1.0
  outer loop
    vertex 18.0 11.0 20.0
    vertex 52.00000000000001 7.999999999999999 20.0
    vertex 42.000000000000014 11.0 20.0
  endloop
endfacet
facet normal -0.0 -0.0 1.0
  outer loop
    vertex 42.000000000000014 11.0 20.0
    vertex 52.00000000000001 7.999999999999999 20.0
    vertex 42.000000000000014 18.0 20.0
  endloop
endfacet
facet normal -0.0 -0.0 1.0
  outer loop
    vertex 42.000000000000014 18.0 20.0
    vertex 52.00000000000001 7.999999999999999 20.0
    vertex 49.000000000000014 18.0 20.0
  endloop
endfacet
facet normal -0.0 -0.0 1.0
  outer loop
    vertex 49.000000000000014 18.0 20.0
    vertex 52.00000000000001 7.999999999999999 20.0
    vertex 49.000000000000014 42.0 20.0
  endloop
endfacet
facet normal -0.0 -0.0 1.0
  outer loop
    vertex 42.00000000000001 49.000000000000014 20.0
    vertex 35.0 52.00000000000001 20.0
    vertex 35.0 49.000000000000014 20.0
  endloop
endfacet
facet normal -0.0 -0.0 1.0
  outer loop
    vertex 35.0 52.00000000000001 20.0
    vertex 42.00000000000001 49.000000000000014 20.0
    vertex 52.00000000000001 52.00000000000001 20.0
  endloop
endfacet
facet normal -0.0 -0.0 1.0
  outer loop
    vertex 52.00000000000001 52.00000000000001 20.0
    vertex 42.00000000000001 49.000000000000014 20.0
    vertex 49.000000000000014 42.0 20.0
  endloop
endfacet
facet normal -0.0 -0.0 1.0
  outer loop
    vertex 52.00000000000001 52.00000000000001 20.0
    vertex 49.000000000000014 42.0 20.0
    vertex 52.00000000000001 7.999999999999999 20.0
  endloop
endfacet
facet normal -0.0 -0.0 1.0
  outer loop
    vertex 18.0 17.999999999999996 20.0
    vertex 11.0 17.999999999999996 20.0
    vertex 18.0 11.0 20.0
  endloop
endfacet
facet normal -1.0 0.0 0.0
  outer loop
    vertex 7.999999999999999 52.00000000000001 20.0
    vertex 7.999999999999999 7.999999999999999 0.0
    vertex 7.999999999999999 7.999999999999999 20.0
  endloop
endfacet
facet normal -1.0 0.0 0.0
  outer loop
    vertex 7.999999999999999 7.999999999999999 0.0
    vertex 7.999999999999999 52.00000000000001 20.0
    vertex 7.999999999999999 52.00000000000001 0.0
  endloop
endfacet
facet normal -0.0 -1.0 -0.0
  outer loop
    vertex 52.00000000000001 7.999999999999999 20.0
    vertex 7.999999999999999 7.999999999999999 0.0
    vertex 52.00000000000001 7.999999999999999 0.0
  endloop
endfacet
facet normal -0.0 -1.0 -0.0
  outer loop
    vertex 7.999999999999999 7.999999999999999 0.0
    vertex 52.00000000000001 7.999999999999999 20.0
    vertex 7.999999999999999 7.999999999999999 20.0
  endloop
endfacet
facet normal 1.0 0.0 0.0
  outer loop
    vertex 52.00000000000001 52.00000000000001 0.0
    vertex 52.00000000000001 7.999999999999999 20.0
    vertex 52.00000000000001 7.999999999999999 0.0
  endloop
endfacet
facet normal 1.0 0.0 0.0
  outer loop
    vertex 52.00000000000001 7.999999999999999 20.0
    vertex 52.00000000000001 52.00000000000001 0.0
    vertex 52.00000000000001 52.00000000000001 20.0
  endloop
endfacet
facet normal 1.0 -0.0 -0.0
  outer loop
    vertex 11.0 42.000000000000014 3.0
    vertex 11.0 17.999999999999996 20.0
    vertex 11.0 17.999999999999996 3.0
  endloop
endfacet
facet normal 1.0 -0.0 -0.0
  outer loop
    vertex 11.0 17.999999999999996 20.0
    vertex 11.0 42.000000000000014 3.0
    vertex 11.0 42.000000000000014 20.0
  endloop
endfacet
facet normal 0.0 1.0 0.0
  outer loop
    vertex 7.999999999999999 52.00000000000001 0.0
    vertex 25.0 52.00000000000001 7.000000000000001
    vertex 52.00000000000001 52.00000000000001 0.0
  endloop
endfacet
facet normal 0.0 1.0 0.0
  outer loop
    vertex 25.0 52.00000000000001 7.000000000000001
    vertex 7.999999999999999 52.00000000000001 0.0
    vertex 7.999999999999999 52.00000000000001 20.0
  endloop
endfacet
facet normal 0.0 1.0 0.0
  outer loop
    vertex 25.0 52.00000000000001 7.000000000000001
    vertex 7.999999999999999 52.00000000000001 20.0
    vertex 25.0 52.00000000000001 20.0
  endloop
endfacet
facet normal 0.0 1.0 0.0
  outer loop
    vertex 52.00000000000001 52.00000000000001 0.0
    vertex 35.0 52.00000000000001 7.000000000000001
    vertex 52.00000000000001 52.00000000000001 20.0
  endloop
endfacet
facet normal 0.0 1.0 0.0
  outer loop
    vertex 35.0 52.00000000000001 7.000000000000001
    vertex 52.00000000000001 52.00000000000001 0.0
    vertex 25.0 52.00000000000001 7.000000000000001
  endloop
endfacet
facet normal 0.0 1.0 0.0
  outer loop
    vertex 52.00000000000001 52.00000000000001 20.0
    vertex 35.0 52.00000000000001 7.000000000000001
    vertex 35.0 52.00000000000001 20.0
  endloop
endfacet
facet normal -1.0 0.0 0.0
  outer loop
    vertex 35.0 52.00000000000001 20.0
    vertex 35.0 49.000000000000014 7.000000000000001
    vertex 35.0 49.000000000000014 20.0
  endloop
endfacet
facet normal -1.0 0.0 0.0
  outer loop
    vertex 35.0 49.000000000000014 7.000000000000001
    vertex 35.0 52.00000000000001 20.0
    vertex 35.0 52.00000000000001 7.000000000000001
  endloop
endfacet
facet normal -1.0 0.0 0.0
  outer loop
    vertex 49.000000000000014 42.0 20.0
    vertex 49.000000000000014 18.0 3.0
    vertex 49.000000000000014 18.0 20.0
  endloop
endfacet
facet normal -1.0 0.0 0.0
  outer loop
    vertex 49.000000000000014 18.0 3.0
    vertex 49.000000000000014 42.0 20.0
    vertex 49.000000000000014 42.0 3.0
  endloop
endfacet
facet normal 0.0 0.0 -1.0
  outer loop
    vertex 7.999999999999999 52.00000000000001 0.0
    vertex 27.127333338303846 32.41045353632453 1.127986593019159e-14
    vertex 7.999999999999999 7.999999999999999 0.0
  endloop
endfacet
facet normal 0.0 0.0 -1.0
  outer loop
    vertex 27.127333338303846 32.41045353632453 1.127986593019159e-14
    vertex 7.999999999999999 52.00000000000001 0.0
    vertex 27.589546463675493 32.87266666169617 1.127986593019159e-14
  endloop
endfacet
facet normal 0.0 0.0 -1.0
  outer loop
    vertex 27.589546463675493 32.87266666169617 1.127986593019159e-14
    vertex 7.999999999999999 52.00000000000001 0.0
    vertex 52.00000000000001 52.00000000000001 0.0
  endloop
endfacet
facet normal 0.0 0.0 -1.0
  outer loop
    vertex 7.999999999999999 7.999999999999999 0.0
    vertex 27.127333338303846 32.41045353632453 1.127986593019159e-14
    vertex 26.75240473580837 31.875000000000004 1.127986593019159e-14
  endloop
endfacet
facet normal 0.0 0.0 -1.0
  outer loop
    vertex 7.999999999999999 7.999999999999999 0.0
    vertex 26.75240473580837 31.875000000000004 1.127986593019159e-14
    vertex 26.476152672052855 31.282575537471264 1.127986593019159e-14
  endloop
endfacet
facet normal 0.0 0.0 -1.0
  outer loop
    vertex 7.999999999999999 7.999999999999999 0.0
    vertex 26.476152672052855 31.282575537471264 1.127986593019159e-14
    vertex 26.306970926204233 30.651180666250998 1.127986593019159e-14
  endloop
endfacet
facet normal 0.0 0.0 -1.0
  outer loop
    vertex 7.999999999999999 7.999999999999999 0.0
    vertex 26.306970926204233 30.651180666250998 1.127986593019159e-14
    vertex 26.250000000000014 30.000000000000007 1.127986593019159e-14
  endloop
endfacet
facet normal 0.0 0.0 -1.0
  outer loop
    vertex 27.589546463675493 32.87266666169617 1.127986593019159e-14
    vertex 52.00000000000001 52.00000000000001 0.0
    vertex 28.12500000000001 33.24759526419165 1.127986593019159e-14
  endloop
endfacet
facet normal 0.0 0.0 -1.0
  outer loop
    vertex 28.12500000000001 33.24759526419165 1.127986593019159e-14
    vertex 52.00000000000001 52.00000000000001 0.0
    vertex 28.717424462528754 33.523847327947166 1.127986593019159e-14
  endloop
endfacet
facet normal 0.0 0.0 -1.0
  outer loop
    vertex 28.717424462528754 33.523847327947166 1.127986593019159e-14
    vertex 52.00000000000001 52.00000000000001 0.0
    vertex 29.348819333749024 33.693029073795785 1.127986593019159e-14
  endloop
endfacet
facet normal 0.0 0.0 -1.0
  outer loop
    vertex 29.348819333749024 33.693029073795785 1.127986593019159e-14
    vertex 52.00000000000001 52.00000000000001 0.0
    vertex 30.000000000000014 33.75000000000001 1.127986593019159e-14
  endloop
endfacet
facet normal 0.0 0.0 -1.0
  outer loop
    vertex 30.000000000000014 33.75000000000001 1.127986593019159e-14
    vertex 52.00000000000001 52.00000000000001 0.0
    vertex 30.651180666251 33.693029073795785 1.127986593019159e-14
  endloop
endfacet
facet normal 0.0 0.0 -1.0
  outer loop
    vertex 30.651180666251 33.693029073795785 1.127986593019159e-14
    vertex 52.00000000000001 52.00000000000001 0.0
    vertex 31.28257553747127 33.523847327947166 1.127986593019159e-14
  endloop
endfacet
facet normal 0.0 0.0 -1.0
  outer loop
    vertex 31.28257553747127 33.523847327947166 1.127986593019159e-14
    vertex 52.00000000000001 52.00000000000001 0.0
    vertex 31.875000000000014 33.24759526419165 1.127986593019159e-14
  endloop
endfacet
facet normal 0.0 0.0 -1.0
  outer loop
    vertex 31.875000000000014 33.24759526419165 1.127986593019159e-14
    vertex 52.00000000000001 52.00000000000001 0.0
    vertex 32.41045353632453 32.87266666169617 1.127986593019159e-14
  endloop
endfacet
facet normal 0.0 0.0 -1.0
  outer loop
    vertex 32.41045353632453 32.87266666169617 1.127986593019159e-14
    vertex 52.00000000000001 52.00000000000001 0.0
    vertex 32.87266666169618 32.41045353632453 1.127986593019159e-14
  endloop
endfacet
facet normal 0.0 0.0 -1.0
  outer loop
    vertex 32.87266666169618 32.41045353632453 1.127986593019159e-14
    vertex 52.00000000000001 52.00000000000001 0.0
    vertex 33.24759526419165 31.87500000000001 1.127986593019159e-14
  endloop
endfacet
facet normal 0.0 0.0 -1.0
  outer loop
    vertex 33.24759526419165 31.87500000000001 1.127986593019159e-14
    vertex 52.00000000000001 52.00000000000001 0.0
    vertex 33.523847327947166 31.282575537471264 1.127986593019159e-14
  endloop
endfacet
facet normal 0.0 0.0 -1.0
  outer loop
    vertex 33.523847327947166 31.282575537471264 1.127986593019159e-14
    vertex 52.00000000000001 52.00000000000001 0.0
    vertex 33.69302907379579 30.651180666250998 1.127986593019159e-14
  endloop
endfacet
facet normal 0.0 0.0 -1.0
  outer loop
    vertex 33.69302907379579 30.651180666250998 1.127986593019159e-14
    vertex 52.00000000000001 52.00000000000001 0.0
    vertex 33.750000000000014 30.000000000000007 1.127986593019159e-14
  endloop
endfacet
facet normal 0.0 0.0 -1.0
  outer loop
    vertex 33.750000000000014 30.000000000000007 1.127986593019159e-14
    vertex 52.00000000000001 52.00000000000001 0.0
    vertex 37.250000000000014 32.00000000000001 1.6567303084968898e-14
  endloop
endfacet
facet normal 0.0 0.0 -1.0
  outer loop
    vertex 37.250000000000014 32.00000000000001 1.6567303084968898e-14
    vertex 52.00000000000001 52.00000000000001 0.0
    vertex 39.750000000000014 32.00000000000001 1.6567303084968898e-14
  endloop
endfacet
facet normal 0.0 0.0 -1.0
  outer loop
    vertex 39.750000000000014 32.00000000000001 1.6567303084968898e-14
    vertex 52.00000000000001 52.00000000000001 0.0
    vertex 39.750000000000014 28.000000000000004 1.6567303084968898e-14
  endloop
endfacet
facet normal 0.0 0.0 -1.0
  outer loop
    vertex 7.999999999999999 7.999999999999999 0.0
    vertex 27.589546463675493 27.127333338303842 1.127986593019159e-14
    vertex 52.00000000000001 7.999999999999999 0.0
  endloop
endfacet
facet normal 0.0 0.0 -1.0
  outer loop
    vertex 27.589546463675493 27.127333338303842 1.127986593019159e-14
    vertex 7.999999999999999 7.999999999999999 0.0
    vertex 27.127333338303846 27.589546463675486 1.127986593019159e-14
  endloop
endfacet
facet normal 0.0 0.0 -1.0
  outer loop
    vertex 27.127333338303846 27.589546463675486 1.127986593019159e-14
    vertex 7.999999999999999 7.999999999999999 0.0
    vertex 26.75240473580837 28.12500000000001 1.127986593019159e-14
  endloop
endfacet
facet normal 0.0 0.0 -1.0
  outer loop
    vertex 26.75240473580837 28.12500000000001 1.127986593019159e-14
    vertex 7.999999999999999 7.999999999999999 0.0
    vertex 26.476152672052855 28.71742446252875 1.127986593019159e-14
  endloop
endfacet
facet normal 0.0 0.0 -1.0
  outer loop
    vertex 26.476152672052855 28.71742446252875 1.127986593019159e-14
    vertex 7.999999999999999 7.999999999999999 0.0
    vertex 26.306970926204233 29.348819333749017 1.127986593019159e-14
  endloop
endfacet
facet normal 0.0 0.0 -1.0
  outer loop
    vertex 26.306970926204233 29.348819333749017 1.127986593019159e-14
    vertex 7.999999999999999 7.999999999999999 0.0
    vertex 26.250000000000014 30.000000000000007 1.127986593019159e-14
  endloop
endfacet
facet normal 0.0 0.0 -1.0
  outer loop
    vertex 52.00000000000001 7.999999999999999 0.0
    vertex 27.589546463675493 27.127333338303842 1.127986593019159e-14
    vertex 28.125000000000018 26.752404735808366 1.127986593019159e-14
  endloop
endfacet
facet normal 0.0 0.0 -1.0
  outer loop
    vertex 52.00000000000001 7.999999999999999 0.0
    vertex 28.125000000000018 26.752404735808366 1.127986593019159e-14
    vertex 28.717424462528754 26.47615267205285 1.127986593019159e-14
  endloop
endfacet
facet normal 0.0 0.0 -1.0
  outer loop
    vertex 52.00000000000001 7.999999999999999 0.0
    vertex 28.717424462528754 26.47615267205285 1.127986593019159e-14
    vertex 29.348819333749024 26.30697092620423 1.127986593019159e-14
  endloop
endfacet
facet normal 0.0 0.0 -1.0
  outer loop
    vertex 52.00000000000001 7.999999999999999 0.0
    vertex 29.348819333749024 26.30697092620423 1.127986593019159e-14
    vertex 30.000000000000014 26.250000000000007 1.127986593019159e-14
  endloop
endfacet
facet normal 0.0 0.0 -1.0
  outer loop
    vertex 52.00000000000001 7.999999999999999 0.0
    vertex 30.000000000000014 26.250000000000007 1.127986593019159e-14
    vertex 30.651180666251 26.30697092620423 1.127986593019159e-14
  endloop
endfacet
facet normal 0.0 0.0 -1.0
  outer loop
    vertex 52.00000000000001 7.999999999999999 0.0
    vertex 30.651180666251 26.30697092620423 1.127986593019159e-14
    vertex 31.28257553747127 26.47615267205285 1.127986593019159e-14
  endloop
endfacet
facet normal 0.0 0.0 -1.0
  outer loop
    vertex 52.00000000000001 7.999999999999999 0.0
    vertex 31.28257553747127 26.47615267205285 1.127986593019159e-14
    vertex 31.875000000000014 26.752404735808366 1.127986593019159e-14
  endloop
endfacet
facet normal 0.0 0.0 -1.0
  outer loop
    vertex 52.00000000000001 7.999999999999999 0.0
    vertex 31.875000000000014 26.752404735808366 1.127986593019159e-14
    vertex 32.41045353632453 27.127333338303842 1.127986593019159e-14
  endloop
endfacet
facet normal 0.0 0.0 -1.0
  outer loop
    vertex 52.00000000000001 7.999999999999999 0.0
    vertex 32.41045353632453 27.127333338303842 1.127986593019159e-14
    vertex 32.87266666169618 27.589546463675486 1.127986593019159e-14
  endloop
endfacet
facet normal 0.0 0.0 -1.0
  outer loop
    vertex 52.00000000000001 7.999999999999999 0.0
    vertex 32.87266666169618 27.589546463675486 1.127986593019159e-14
    vertex 33.24759526419165 28.12500000000001 1.127986593019159e-14
  endloop
endfacet
facet normal 0.0 0.0 -1.0
  outer loop
    vertex 52.00000000000001 7.999999999999999 0.0
    vertex 33.24759526419165 28.12500000000001 1.127986593019159e-14
    vertex 33.523847327947166 28.71742446252875 1.127986593019159e-14
  endloop
endfacet
facet normal 0.0 0.0 -1.0
  outer loop
    vertex 52.00000000000001 7.999999999999999 0.0
    vertex 33.523847327947166 28.71742446252875 1.127986593019159e-14
    vertex 33.69302907379579 29.348819333749017 1.127986593019159e-14
  endloop
endfacet
facet normal 0.0 0.0 -1.0
  outer loop
    vertex 52.00000000000001 7.999999999999999 0.0
    vertex 33.69302907379579 29.348819333749017 1.127986593019159e-14
    vertex 33.750000000000014 30.000000000000007 1.127986593019159e-14
  endloop
endfacet
facet normal 0.0 0.0 -1.0
  outer loop
    vertex 52.00000000000001 7.999999999999999 0.0
    vertex 33.750000000000014 30.000000000000007 1.127986593019159e-14
    vertex 37.250000000000014 28.000000000000004 1.6567303084968898e-14
  endloop
endfacet
facet normal 0.0 0.0 -1.0
  outer loop
    vertex 37.250000000000014 28.000000000000004 1.6567303084968898e-14
    vertex 33.750000000000014 30.000000000000007 1.127986593019159e-14
    vertex 37.250000000000014 32.00000000000001 1.6567303084968898e-14
  endloop
endfacet
facet normal 0.0 0.0 -1.0
  outer loop
    vertex 52.00000000000001 7.999999999999999 0.0
    vertex 37.250000000000014 28.000000000000004 1.6567303084968898e-14
    vertex 39.750000000000014 28.000000000000004 1.6567303084968898e-14
  endloop
endfacet
facet normal 0.0 0.0 -1.0
  outer loop
    vertex 52.00000000000001 7.999999999999999 0.0
    vertex 39.750000000000014 28.000000000000004 1.6567303084968898e-14
    vertex 52.00000000000001 52.00000000000001 0.0
  endloop
endfacet
facet normal -0.9063077870366482 0.4226182617407035 4.982721485188313e-32
  outer loop
    vertex 33.523847327947166 28.71742446252875 3.0
    vertex 33.24759526419165 28.12500000000001 1.127986593019159e-14
    vertex 33.24759526419165 28.12500000000001 3.0
  endloop
endfacet
facet normal -0.9063077870366482 0.4226182617407035 4.982721485188313e-32
  outer loop
    vertex 33.24759526419165 28.12500000000001 1.127986593019159e-14
    vertex 33.523847327947166 28.71742446252875 3.0
    vertex 33.523847327947166 28.71742446252875 1.127986593019159e-14
  endloop
endfacet
facet normal -0.9659258262890685 0.2588190451025202 5.31049102367935e-32
  outer loop
    vertex 33.69302907379579 29.348819333749017 3.0
    vertex 33.523847327947166 28.71742446252875 1.127986593019159e-14
    vertex 33.523847327947166 28.71742446252875 3.0
  endloop
endfacet
facet normal -0.9659258262890685 0.2588190451025202 5.31049102367935e-32
  outer loop
    vertex 33.523847327947166 28.71742446252875 1.127986593019159e-14
    vertex 33.69302907379579 29.348819333749017 3.0
    vertex 33.69302907379579 29.348819333749017 1.127986593019159e-14
  endloop
endfacet
facet normal -0.9961946980917455 0.08715574274765822 5.476903979653997e-32
  outer loop
    vertex 33.750000000000014 30.000000000000007 3.0
    vertex 33.69302907379579 29.348819333749017 1.127986593019159e-14
    vertex 33.69302907379579 29.348819333749017 3.0
  endloop
endfacet
facet normal -0.9961946980917455 0.08715574274765822 5.476903979653997e-32
  outer loop
    vertex 33.69302907379579 29.348819333749017 1.127986593019159e-14
    vertex 33.750000000000014 30.000000000000007 3.0
    vertex 33.750000000000014 30.000000000000007 1.127986593019159e-14
  endloop
endfacet
facet normal -0.9961946980917455 -0.08715574274765822 5.476903979653997e-32
  outer loop
    vertex 33.69302907379579 30.651180666250998 3.0
    vertex 33.750000000000014 30.000000000000007 1.127986593019159e-14
    vertex 33.750000000000014 30.000000000000007 3.0
  endloop
endfacet
facet normal -0.9961946980917455 -0.08715574274765822 5.476903979653997e-32
  outer loop
    vertex 33.750000000000014 30.000000000000007 1.127986593019159e-14
    vertex 33.69302907379579 30.651180666250998 3.0
    vertex 33.69302907379579 30.651180666250998 1.127986593019159e-14
  endloop
endfacet
facet normal -0.9659258262890685 -0.2588190451025202 5.31049102367935e-32
  outer loop
    vertex 33.523847327947166 31.282575537471264 3.0
    vertex 33.69302907379579 30.651180666250998 1.127986593019159e-14
    vertex 33.69302907379579 30.651180666250998 3.0
  endloop
endfacet
facet normal -0.9659258262890685 -0.2588190451025202 5.31049102367935e-32
  outer loop
    vertex 33.69302907379579 30.651180666250998 1.127986593019159e-14
    vertex 33.523847327947166 31.282575537471264 3.0
    vertex 33.523847327947166 31.282575537471264 1.127986593019159e-14
  endloop
endfacet
facet normal -0.9063077870366496 -0.4226182617407001 4.982721485188321e-32
  outer loop
    vertex 33.24759526419165 31.87500000000001 3.0
    vertex 33.523847327947166 31.282575537471264 1.127986593019159e-14
    vertex 33.523847327947166 31.282575537471264 3.0
  endloop
endfacet
facet normal -0.9063077870366496 -0.4226182617407001 4.982721485188321e-32
  outer loop
    vertex 33.523847327947166 31.282575537471264 1.127986593019159e-14
    vertex 33.24759526419165 31.87500000000001 3.0
    vertex 33.24759526419165 31.87500000000001 1.127986593019159e-14
  endloop
endfacet
facet normal -0.8191520442889907 -0.5735764363510478 4.503554475748574e-32
  outer loop
    vertex 32.87266666169618 32.41045353632453 3.0
    vertex 33.24759526419165 31.87500000000001 1.127986593019159e-14
    vertex 33.24759526419165 31.87500000000001 3.0
  endloop
endfacet
facet normal -0.8191520442889907 -0.5735764363510478 4.503554475748574e-32
  outer loop
    vertex 33.24759526419165 31.87500000000001 1.127986593019159e-14
    vertex 32.87266666169618 32.41045353632453 3.0
    vertex 32.87266666169618 32.41045353632453 1.127986593019159e-14
  endloop
endfacet
facet normal -0.7071067811865476 -0.7071067811865476 3.887549242471741e-32
  outer loop
    vertex 32.41045353632453 32.87266666169617 3.0
    vertex 32.87266666169618 32.41045353632453 1.127986593019159e-14
    vertex 32.87266666169618 32.41045353632453 3.0
  endloop
endfacet
facet normal -0.7071067811865476 -0.7071067811865476 3.887549242471741e-32
  outer loop
    vertex 32.87266666169618 32.41045353632453 1.127986593019159e-14
    vertex 32.41045353632453 32.87266666169617 3.0
    vertex 32.41045353632453 32.87266666169617 1.127986593019159e-14
  endloop
endfacet
facet normal -0.5735764363510478 -0.8191520442889907 3.153422792657243e-32
  outer loop
    vertex 32.41045353632453 32.87266666169617 3.0
    vertex 31.875000000000014 33.24759526419165 1.127986593019159e-14
    vertex 32.41045353632453 32.87266666169617 1.127986593019159e-14
  endloop
endfacet
facet normal -0.5735764363510478 -0.8191520442889907 3.153422792657243e-32
  outer loop
    vertex 31.875000000000014 33.24759526419165 1.127986593019159e-14
    vertex 32.41045353632453 32.87266666169617 3.0
    vertex 31.875000000000014 33.24759526419165 3.0
  endloop
endfacet
facet normal -0.4226182617407001 -0.9063077870366496 2.323481186996767e-32
  outer loop
    vertex 31.875000000000014 33.24759526419165 3.0
    vertex 31.28257553747127 33.523847327947166 1.127986593019159e-14
    vertex 31.875000000000014 33.24759526419165 1.127986593019159e-14
  endloop
endfacet
facet normal -0.4226182617407001 -0.9063077870366496 2.323481186996767e-32
  outer loop
    vertex 31.28257553747127 33.523847327947166 1.127986593019159e-14
    vertex 31.875000000000014 33.24759526419165 3.0
    vertex 31.28257553747127 33.523847327947166 3.0
  endloop
endfacet
facet normal -0.2588190451025202 -0.9659258262890685 1.422941781207604e-32
  outer loop
    vertex 31.28257553747127 33.523847327947166 3.0
    vertex 30.651180666251 33.693029073795785 1.127986593019159e-14
    vertex 31.28257553747127 33.523847327947166 1.127986593019159e-14
  endloop
endfacet
facet normal -0.2588190451025202 -0.9659258262890685 1.422941781207604e-32
  outer loop
    vertex 30.651180666251 33.693029073795785 1.127986593019159e-14
    vertex 31.28257553747127 33.523847327947166 3.0
    vertex 30.651180666251 33.693029073795785 3.0
  endloop
endfacet
facet normal -0.08715574274765822 -0.9961946980917455 4.7916700943974286e-33
  outer loop
    vertex 30.651180666251 33.693029073795785 3.0
    vertex 30.000000000000014 33.75000000000001 1.127986593019159e-14
    vertex 30.651180666251 33.693029073795785 1.127986593019159e-14
  endloop
endfacet
facet normal -0.08715574274765822 -0.9961946980917455 4.7916700943974286e-33
  outer loop
    vertex 30.000000000000014 33.75000000000001 1.127986593019159e-14
    vertex 30.651180666251 33.693029073795785 3.0
    vertex 30.000000000000014 33.75000000000001 3.0
  endloop
endfacet
facet normal 0.08715574274765822 -0.9961946980917455 -4.7916700943974286e-33
  outer loop
    vertex 30.000000000000014 33.75000000000001 3.0
    vertex 29.348819333749024 33.693029073795785 1.127986593019159e-14
    vertex 30.000000000000014 33.75000000000001 1.127986593019159e-14
  endloop
endfacet
facet normal 0.08715574274765822 -0.9961946980917455 -4.7916700943974286e-33
  outer loop
    vertex 29.348819333749024 33.693029073795785 1.127986593019159e-14
    vertex 30.000000000000014 33.75000000000001 3.0
    vertex 29.348819333749024 33.693029073795785 3.0
  endloop
endfacet
facet normal 0.2588190451025202 -0.9659258262890685 -1.422941781207604e-32
  outer loop
    vertex 29.348819333749024 33.693029073795785 3.0
    vertex 28.717424462528754 33.523847327947166 1.127986593019159e-14
    vertex 29.348819333749024 33.693029073795785 1.127986593019159e-14
  endloop
endfacet
facet normal 0.2588190451025202 -0.9659258262890685 -1.422941781207604e-32
  outer loop
    vertex 28.717424462528754 33.523847327947166 1.127986593019159e-14
    vertex 29.348819333749024 33.693029073795785 3.0
    vertex 28.717424462528754 33.523847327947166 3.0
  endloop
endfacet
facet normal 0.4226182617407001 -0.9063077870366496 -2.323481186996767e-32
  outer loop
    vertex 28.717424462528754 33.523847327947166 3.0
    vertex 28.12500000000001 33.24759526419165 1.127986593019159e-14
    vertex 28.717424462528754 33.523847327947166 1.127986593019159e-14
  endloop
endfacet
facet normal 0.4226182617407001 -0.9063077870366496 -2.323481186996767e-32
  outer loop
    vertex 28.12500000000001 33.24759526419165 1.127986593019159e-14
    vertex 28.717424462528754 33.523847327947166 3.0
    vertex 28.12500000000001 33.24759526419165 3.0
  endloop
endfacet
facet normal 0.5735764363510478 -0.8191520442889907 -3.153422792657243e-32
  outer loop
    vertex 28.12500000000001 33.24759526419165 3.0
    vertex 27.589546463675493 32.87266666169617 1.127986593019159e-14
    vertex 28.12500000000001 33.24759526419165 1.127986593019159e-14
  endloop
endfacet
facet normal 0.5735764363510478 -0.8191520442889907 -3.153422792657243e-32
  outer loop
    vertex 27.589546463675493 32.87266666169617 1.127986593019159e-14
    vertex 28.12500000000001 33.24759526419165 3.0
    vertex 27.589546463675493 32.87266666169617 3.0
  endloop
endfacet
facet normal 0.7071067811865476 -0.7071067811865476 -3.887549242471741e-32
  outer loop
    vertex 27.589546463675493 32.87266666169617 1.127986593019159e-14
    vertex 27.127333338303846 32.41045353632453 3.0
    vertex 27.127333338303846 32.41045353632453 1.127986593019159e-14
  endloop
endfacet
facet normal 0.7071067811865476 -0.7071067811865476 -3.887549242471741e-32
  outer loop
    vertex 27.127333338303846 32.41045353632453 3.0
    vertex 27.589546463675493 32.87266666169617 1.127986593019159e-14
    vertex 27.589546463675493 32.87266666169617 3.0
  endloop
endfacet
facet normal 0.8191520442889935 -0.5735764363510437 -4.503554475748589e-32
  outer loop
    vertex 27.127333338303846 32.41045353632453 1.127986593019159e-14
    vertex 26.75240473580837 31.875000000000004 3.0
    vertex 26.75240473580837 31.875000000000004 1.127986593019159e-14
  endloop
endfacet
facet normal 0.8191520442889935 -0.5735764363510437 -4.503554475748589e-32
  outer loop
    vertex 26.75240473580837 31.875000000000004 3.0
    vertex 27.127333338303846 32.41045353632453 1.127986593019159e-14
    vertex 27.127333338303846 32.41045353632453 3.0
  endloop
endfacet
facet normal 0.9063077870366482 -0.4226182617407035 -4.982721485188313e-32
  outer loop
    vertex 26.75240473580837 31.875000000000004 1.127986593019159e-14
    vertex 26.476152672052855 31.282575537471264 3.0
    vertex 26.476152672052855 31.282575537471264 1.127986593019159e-14
  endloop
endfacet
facet normal 0.9063077870366482 -0.4226182617407035 -4.982721485188313e-32
  outer loop
    vertex 26.476152672052855 31.282575537471264 3.0
    vertex 26.75240473580837 31.875000000000004 1.127986593019159e-14
    vertex 26.75240473580837 31.875000000000004 3.0
  endloop
endfacet
facet normal 0.9659258262890685 -0.2588190451025202 -5.31049102367935e-32
  outer loop
    vertex 26.476152672052855 31.282575537471264 1.127986593019159e-14
    vertex 26.306970926204233 30.651180666250998 3.0
    vertex 26.306970926204233 30.651180666250998 1.127986593019159e-14
  endloop
endfacet
facet normal 0.9659258262890685 -0.2588190451025202 -5.31049102367935e-32
  outer loop
    vertex 26.306970926204233 30.651180666250998 3.0
    vertex 26.476152672052855 31.282575537471264 1.127986593019159e-14
    vertex 26.476152672052855 31.282575537471264 3.0
  endloop
endfacet
facet normal 0.9961946980917455 -0.08715574274765822 -5.476903979653997e-32
  outer loop
    vertex 26.306970926204233 30.651180666250998 1.127986593019159e-14
    vertex 26.250000000000014 30.000000000000007 3.0
    vertex 26.250000000000014 30.000000000000007 1.127986593019159e-14
  endloop
endfacet
facet normal 0.9961946980917455 -0.08715574274765822 -5.476903979653997e-32
  outer loop
    vertex 26.250000000000014 30.000000000000007 3.0
    vertex 26.306970926204233 30.651180666250998 1.127986593019159e-14
    vertex 26.306970926204233 30.651180666250998 3.0
  endloop
endfacet
facet normal 0.9961946980917455 0.08715574274765822 -5.476903979653997e-32
  outer loop
    vertex 26.250000000000014 30.000000000000007 1.127986593019159e-14
    vertex 26.306970926204233 29.348819333749017 3.0
    vertex 26.306970926204233 29.348819333749017 1.127986593019159e-14
  endloop
endfacet
facet normal 0.9961946980917455 0.08715574274765822 -5.476903979653997e-32
  outer loop
    vertex 26.306970926204233 29.348819333749017 3.0
    vertex 26.250000000000014 30.000000000000007 1.127986593019159e-14
    vertex 26.250000000000014 30.000000000000007 3.0
  endloop
endfacet
facet normal 0.9659258262890685 0.2588190451025202 -5.31049102367935e-32
  outer loop
    vertex 26.306970926204233 29.348819333749017 1.127986593019159e-14
    vertex 26.476152672052855 28.71742446252875 3.0
    vertex 26.476152672052855 28.71742446252875 1.127986593019159e-14
  endloop
endfacet
facet normal 0.9659258262890685 0.2588190451025202 -5.31049102367935e-32
  outer loop
    vertex 26.476152672052855 28.71742446252875 3.0
    vertex 26.306970926204233 29.348819333749017 1.127986593019159e-14
    vertex 26.306970926204233 29.348819333749017 3.0
  endloop
endfacet
facet normal 0.9063077870366482 0.4226182617407035 -4.982721485188313e-32
  outer loop
    vertex 26.476152672052855 28.71742446252875 1.127986593019159e-14
    vertex 26.75240473580837 28.12500000000001 3.0
    vertex 26.75240473580837 28.12500000000001 1.127986593019159e-14
  endloop
endfacet
facet normal 0.9063077870366482 0.4226182617407035 -4.982721485188313e-32
  outer loop
    vertex 26.75240473580837 28.12500000000001 3.0
    vertex 26.476152672052855 28.71742446252875 1.127986593019159e-14
    vertex 26.476152672052855 28.71742446252875 3.0
  endloop
endfacet
facet normal 0.8191520442889935 0.5735764363510437 -4.503554475748589e-32
  outer loop
    vertex 26.75240473580837 28.12500000000001 1.127986593019159e-14
    vertex 27.127333338303846 27.589546463675486 3.0
    vertex 27.127333338303846 27.589546463675486 1.127986593019159e-14
  endloop
endfacet
facet normal 0.8191520442889935 0.5735764363510437 -4.503554475748589e-32
  outer loop
    vertex 27.127333338303846 27.589546463675486 3.0
    vertex 26.75240473580837 28.12500000000001 1.127986593019159e-14
    vertex 26.75240473580837 28.12500000000001 3.0
  endloop
endfacet
facet normal 0.7071067811865476 0.7071067811865476 -3.887549242471741e-32
  outer loop
    vertex 27.127333338303846 27.589546463675486 1.127986593019159e-14
    vertex 27.589546463675493 27.127333338303842 3.0
    vertex 27.589546463675493 27.127333338303842 1.127986593019159e-14
  endloop
endfacet
facet normal 0.7071067811865476 0.7071067811865476 -3.887549242471741e-32
  outer loop
    vertex 27.589546463675493 27.127333338303842 3.0
    vertex 27.127333338303846 27.589546463675486 1.127986593019159e-14
    vertex 27.127333338303846 27.589546463675486 3.0
  endloop
endfacet
facet normal 0.5735764363510437 0.8191520442889935 -3.1534227926572204e-32
  outer loop
    vertex 27.589546463675493 27.127333338303842 3.0
    vertex 28.125000000000018 26.752404735808366 1.127986593019159e-14
    vertex 27.589546463675493 27.127333338303842 1.127986593019159e-14
  endloop
endfacet
facet normal 0.5735764363510437 0.8191520442889935 -3.1534227926572204e-32
  outer loop
    vertex 28.125000000000018 26.752404735808366 1.127986593019159e-14
    vertex 27.589546463675493 27.127333338303842 3.0
    vertex 28.125000000000018 26.752404735808366 3.0
  endloop
endfacet
facet normal 0.4226182617407035 0.9063077870366482 -2.3234811869967853e-32
  outer loop
    vertex 28.125000000000018 26.752404735808366 3.0
    vertex 28.717424462528754 26.47615267205285 1.127986593019159e-14
    vertex 28.125000000000018 26.752404735808366 1.127986593019159e-14
  endloop
endfacet
facet normal 0.4226182617407035 0.9063077870366482 -2.3234811869967853e-32
  outer loop
    vertex 28.717424462528754 26.47615267205285 1.127986593019159e-14
    vertex 28.125000000000018 26.752404735808366 3.0
    vertex 28.717424462528754 26.47615267205285 3.0
  endloop
endfacet
facet normal 0.2588190451025202 0.9659258262890685 -1.422941781207604e-32
  outer loop
    vertex 28.717424462528754 26.47615267205285 3.0
    vertex 29.348819333749024 26.30697092620423 1.127986593019159e-14
    vertex 28.717424462528754 26.47615267205285 1.127986593019159e-14
  endloop
endfacet
facet normal 0.2588190451025202 0.9659258262890685 -1.422941781207604e-32
  outer loop
    vertex 29.348819333749024 26.30697092620423 1.127986593019159e-14
    vertex 28.717424462528754 26.47615267205285 3.0
    vertex 29.348819333749024 26.30697092620423 3.0
  endloop
endfacet
facet normal 0.08715574274765822 0.9961946980917455 -4.7916700943974286e-33
  outer loop
    vertex 29.348819333749024 26.30697092620423 3.0
    vertex 30.000000000000014 26.250000000000007 1.127986593019159e-14
    vertex 29.348819333749024 26.30697092620423 1.127986593019159e-14
  endloop
endfacet
facet normal 0.08715574274765822 0.9961946980917455 -4.7916700943974286e-33
  outer loop
    vertex 30.000000000000014 26.250000000000007 1.127986593019159e-14
    vertex 29.348819333749024 26.30697092620423 3.0
    vertex 30.000000000000014 26.250000000000007 3.0
  endloop
endfacet
facet normal -0.08715574274765822 0.9961946980917455 4.7916700943974286e-33
  outer loop
    vertex 30.000000000000014 26.250000000000007 3.0
    vertex 30.651180666251 26.30697092620423 1.127986593019159e-14
    vertex 30.000000000000014 26.250000000000007 1.127986593019159e-14
  endloop
endfacet
facet normal -0.08715574274765822 0.9961946980917455 4.7916700943974286e-33
  outer loop
    vertex 30.651180666251 26.30697092620423 1.127986593019159e-14
    vertex 30.000000000000014 26.250000000000007 3.0
    vertex 30.651180666251 26.30697092620423 3.0
  endloop
endfacet
facet normal -0.2588190451025202 0.9659258262890685 1.422941781207604e-32
  outer loop
    vertex 30.651180666251 26.30697092620423 3.0
    vertex 31.28257553747127 26.47615267205285 1.127986593019159e-14
    vertex 30.651180666251 26.30697092620423 1.127986593019159e-14
  endloop
endfacet
facet normal -0.2588190451025202 0.9659258262890685 1.422941781207604e-32
  outer loop
    vertex 31.28257553747127 26.47615267205285 1.127986593019159e-14
    vertex 30.651180666251 26.30697092620423 3.0
    vertex 31.28257553747127 26.47615267205285 3.0
  endloop
endfacet
facet normal -0.4226182617407001 0.9063077870366496 2.323481186996767e-32
  outer loop
    vertex 31.28257553747127 26.47615267205285 3.0
    vertex 31.875000000000014 26.752404735808366 1.127986593019159e-14
    vertex 31.28257553747127 26.47615267205285 1.127986593019159e-14
  endloop
endfacet
facet normal -0.4226182617407001 0.9063077870366496 2.323481186996767e-32
  outer loop
    vertex 31.875000000000014 26.752404735808366 1.127986593019159e-14
    vertex 31.28257553747127 26.47615267205285 3.0
    vertex 31.875000000000014 26.752404735808366 3.0
  endloop
endfacet
facet normal -0.5735764363510478 0.8191520442889907 3.153422792657243e-32
  outer loop
    vertex 31.875000000000014 26.752404735808366 3.0
    vertex 32.41045353632453 27.127333338303842 1.127986593019159e-14
    vertex 31.875000000000014 26.752404735808366 1.127986593019159e-14
  endloop
endfacet
facet normal -0.5735764363510478 0.8191520442889907 3.153422792657243e-32
  outer loop
    vertex 32.41045353632453 27.127333338303842 1.127986593019159e-14
    vertex 31.875000000000014 26.752404735808366 3.0
    vertex 32.41045353632453 27.127333338303842 3.0
  endloop
endfacet
facet normal -0.7071067811865476 0.7071067811865476 3.887549242471741e-32
  outer loop
    vertex 32.87266666169618 27.589546463675486 3.0
    vertex 32.41045353632453 27.127333338303842 1.127986593019159e-14
    vertex 32.41045353632453 27.127333338303842 3.0
  endloop
endfacet
facet normal -0.7071067811865476 0.7071067811865476 3.887549242471741e-32
  outer loop
    vertex 32.41045353632453 27.127333338303842 1.127986593019159e-14
    vertex 32.87266666169618 27.589546463675486 3.0
    vertex 32.87266666169618 27.589546463675486 1.127986593019159e-14
  endloop
endfacet
facet normal -0.8191520442889935 0.5735764363510437 4.503554475748589e-32
  outer loop
    vertex 33.24759526419165 28.12500000000001 3.0
    vertex 32.87266666169618 27.589546463675486 1.127986593019159e-14
    vertex 32.87266666169618 27.589546463675486 3.0
  endloop
endfacet
facet normal -0.8191520442889935 0.5735764363510437 4.503554475748589e-32
  outer loop
    vertex 32.87266666169618 27.589546463675486 1.127986593019159e-14
    vertex 33.24759526419165 28.12500000000001 3.0
    vertex 33.24759526419165 28.12500000000001 1.127986593019159e-14
  endloop
endfacet
facet normal 1.0 0.0 0.0
  outer loop
    vertex 37.250000000000014 32.00000000000001 1.6567303084968898e-14
    vertex 37.250000000000014 28.000000000000004 3.0
    vertex 37.250000000000014 28.000000000000004 1.6567303084968898e-14
  endloop
endfacet
facet normal 1.0 0.0 0.0
  outer loop
    vertex 37.250000000000014 28.000000000000004 3.0
    vertex 37.250000000000014 32.00000000000001 1.6567303084968898e-14
    vertex 37.250000000000014 32.00000000000001 3.0
  endloop
endfacet
facet normal 0.0 1.0 0.0
  outer loop
    vertex 37.250000000000014 28.000000000000004 3.0
    vertex 39.750000000000014 28.000000000000004 1.6567303084968898e-14
    vertex 37.250000000000014 28.000000000000004 1.6567303084968898e-14
  endloop
endfacet
facet normal 0.0 1.0 0.0
  outer loop
    vertex 39.750000000000014 28.000000000000004 1.6567303084968898e-14
    vertex 37.250000000000014 28.000000000000004 3.0
    vertex 39.750000000000014 28.000000000000004 3.0
  endloop
endfacet
facet normal -1.0 0.0 0.0
  outer loop
    vertex 39.750000000000014 32.00000000000001 3.0
    vertex 39.750000000000014 28.000000000000004 1.6567303084968898e-14
    vertex 39.750000000000014 28.000000000000004 3.0
  endloop
endfacet
facet normal -1.0 0.0 0.0
  outer loop
    vertex 39.750000000000014 28.000000000000004 1.6567303084968898e-14
    vertex 39.750000000000014 32.00000000000001 3.0
    vertex 39.750000000000014 32.00000000000001 1.6567303084968898e-14
  endloop
endfacet
facet normal -0.0 -1.0 -0.0
  outer loop
    vertex 39.750000000000014 32.00000000000001 3.0
    vertex 37.250000000000014 32.00000000000001 1.6567303084968898e-14
    vertex 39.750000000000014 32.00000000000001 1.6567303084968898e-14
  endloop
endfacet
facet normal -0.0 -1.0 -0.0
  outer loop
    vertex 37.250000000000014 32.00000000000001 1.6567303084968898e-14
    vertex 39.750000000000014 32.00000000000001 3.0
    vertex 37.250000000000014 32.00000000000001 3.0
  endloop
endfacet
facet normal -0.0 -0.0 1.0
  outer loop
    vertex 49.000000000000014 11.0 3.0
    vertex 11.0 17.999999999999996 3.0
    vertex 11.0 11.0 3.0
  endloop
endfacet
facet normal -0.0 -0.0 1.0
  outer loop
    vertex 11.0 17.999999999999996 3.0
    vertex 49.000000000000014 11.0 3.0
    vertex 27.589546463675493 27.127333338303842 3.0
  endloop
endfacet
facet normal -0.0 -0.0 1.0
  outer loop
    vertex 11.0 17.999999999999996 3.0
    vertex 27.589546463675493 27.127333338303842 3.0
    vertex 11.0 42.000000000000014 3.0
  endloop
endfacet
facet normal -0.0 -0.0 1.0
  outer loop
    vertex 11.0 42.000000000000014 3.0
    vertex 27.589546463675493 27.127333338303842 3.0
    vertex 27.127333338303846 27.589546463675486 3.0
  endloop
endfacet
facet normal -0.0 -0.0 1.0
  outer loop
    vertex 11.0 42.000000000000014 3.0
    vertex 27.127333338303846 27.589546463675486 3.0
    vertex 11.0 49.000000000000014 3.0
  endloop
endfacet
facet normal -0.0 -0.0 1.0
  outer loop
    vertex 11.0 49.000000000000014 3.0
    vertex 27.127333338303846 27.589546463675486 3.0
    vertex 26.75240473580837 28.12500000000001 3.0
  endloop
endfacet
facet normal -0.0 -0.0 1.0
  outer loop
    vertex 11.0 49.000000000000014 3.0
    vertex 26.75240473580837 28.12500000000001 3.0
    vertex 26.476152672052855 28.71742446252875 3.0
  endloop
endfacet
facet normal -0.0 -0.0 1.0
  outer loop
    vertex 11.0 49.000000000000014 3.0
    vertex 26.476152672052855 28.71742446252875 3.0
    vertex 26.306970926204233 29.348819333749017 3.0
  endloop
endfacet
facet normal -0.0 -0.0 1.0
  outer loop
    vertex 11.0 49.000000000000014 3.0
    vertex 26.306970926204233 29.348819333749017 3.0
    vertex 26.250000000000014 30.000000000000007 3.0
  endloop
endfacet
facet normal -0.0 -0.0 1.0
  outer loop
    vertex 27.589546463675493 27.127333338303842 3.0
    vertex 49.000000000000014 11.0 3.0
    vertex 28.125000000000018 26.752404735808366 3.0
  endloop
endfacet
facet normal -0.0 -0.0 1.0
  outer loop
    vertex 28.125000000000018 26.752404735808366 3.0
    vertex 49.000000000000014 11.0 3.0
    vertex 28.717424462528754 26.47615267205285 3.0
  endloop
endfacet
facet normal -0.0 -0.0 1.0
  outer loop
    vertex 28.717424462528754 26.47615267205285 3.0
    vertex 49.000000000000014 11.0 3.0
    vertex 29.348819333749024 26.30697092620423 3.0
  endloop
endfacet
facet normal -0.0 -0.0 1.0
  outer loop
    vertex 29.348819333749024 26.30697092620423 3.0
    vertex 49.000000000000014 11.0 3.0
    vertex 30.000000000000014 26.250000000000007 3.0
  endloop
endfacet
facet normal -0.0 -0.0 1.0
  outer loop
    vertex 30.000000000000014 26.250000000000007 3.0
    vertex 49.000000000000014 11.0 3.0
    vertex 30.651180666251 26.30697092620423 3.0
  endloop
endfacet
facet normal -0.0 -0.0 1.0
  outer loop
    vertex 30.651180666251 26.30697092620423 3.0
    vertex 49.000000000000014 11.0 3.0
    vertex 31.28257553747127 26.47615267205285 3.0
  endloop
endfacet
facet normal -0.0 -0.0 1.0
  outer loop
    vertex 31.28257553747127 26.47615267205285 3.0
    vertex 49.000000000000014 11.0 3.0
    vertex 31.875000000000014 26.752404735808366 3.0
  endloop
endfacet
facet normal -0.0 -0.0 1.0
  outer loop
    vertex 31.875000000000014 26.752404735808366 3.0
    vertex 49.000000000000014 11.0 3.0
    vertex 32.41045353632453 27.127333338303842 3.0
  endloop
endfacet
facet normal -0.0 -0.0 1.0
  outer loop
    vertex 32.41045353632453 27.127333338303842 3.0
    vertex 49.000000000000014 11.0 3.0
    vertex 32.87266666169618 27.589546463675486 3.0
  endloop
endfacet
facet normal -0.0 -0.0 1.0
  outer loop
    vertex 32.87266666169618 27.589546463675486 3.0
    vertex 49.000000000000014 11.0 3.0
    vertex 33.24759526419165 28.12500000000001 3.0
  endloop
endfacet
facet normal -0.0 -0.0 1.0
  outer loop
    vertex 33.24759526419165 28.12500000000001 3.0
    vertex 49.000000000000014 11.0 3.0
    vertex 33.523847327947166 28.71742446252875 3.0
  endloop
endfacet
facet normal -0.0 -0.0 1.0
  outer loop
    vertex 33.523847327947166 28.71742446252875 3.0
    vertex 49.000000000000014 11.0 3.0
    vertex 33.69302907379579 29.348819333749017 3.0
  endloop
endfacet
facet normal -0.0 -0.0 1.0
  outer loop
    vertex 33.69302907379579 29.348819333749017 3.0
    vertex 49.000000000000014 11.0 3.0
    vertex 33.750000000000014 30.000000000000007 3.0
  endloop
endfacet
facet normal -0.0 -0.0 1.0
  outer loop
    vertex 33.750000000000014 30.000000000000007 3.0
    vertex 49.000000000000014 11.0 3.0
    vertex 37.250000000000014 28.000000000000004 3.0
  endloop
endfacet
facet normal -0.0 -0.0 1.0
  outer loop
    vertex 37.250000000000014 28.000000000000004 3.0
    vertex 49.000000000000014 11.0 3.0
    vertex 39.750000000000014 28.000000000000004 3.0
  endloop
endfacet
facet normal -0.0 -0.0 1.0
  outer loop
    vertex 39.750000000000014 28.000000000000004 3.0
    vertex 49.000000000000014 11.0 3.0
    vertex 39.750000000000014 32.00000000000001 3.0
  endloop
endfacet
facet normal -0.0 -0.0 1.0
  outer loop
    vertex 11.0 49.000000000000014 3.0
    vertex 27.589546463675493 32.87266666169617 3.0
    vertex 49.000000000000014 49.000000000000014 3.0
  endloop
endfacet
facet normal -0.0 -0.0 1.0
  outer loop
    vertex 27.589546463675493 32.87266666169617 3.0
    vertex 11.0 49.000000000000014 3.0
    vertex 27.127333338303846 32.41045353632453 3.0
  endloop
endfacet
facet normal -0.0 -0.0 1.0
  outer loop
    vertex 27.127333338303846 32.41045353632453 3.0
    vertex 11.0 49.000000000000014 3.0
    vertex 26.75240473580837 31.875000000000004 3.0
  endloop
endfacet
facet normal -0.0 -0.0 1.0
  outer loop
    vertex 26.75240473580837 31.875000000000004 3.0
    vertex 11.0 49.000000000000014 3.0
    vertex 26.476152672052855 31.282575537471264 3.0
  endloop
endfacet
facet normal -0.0 -0.0 1.0
  outer loop
    vertex 26.476152672052855 31.282575537471264 3.0
    vertex 11.0 49.000000000000014 3.0
    vertex 26.306970926204233 30.651180666250998 3.0
  endloop
endfacet
facet normal -0.0 -0.0 1.0
  outer loop
    vertex 26.306970926204233 30.651180666250998 3.0
    vertex 11.0 49.000000000000014 3.0
    vertex 26.250000000000014 30.000000000000007 3.0
  endloop
endfacet
facet normal -0.0 -0.0 1.0
  outer loop
    vertex 49.000000000000014 49.000000000000014 3.0
    vertex 27.589546463675493 32.87266666169617 3.0
    vertex 28.12500000000001 33.24759526419165 3.0
  endloop
endfacet
facet normal -0.0 -0.0 1.0
  outer loop
    vertex 49.000000000000014 49.000000000000014 3.0
    vertex 28.12500000000001 33.24759526419165 3.0
    vertex 28.717424462528754 33.523847327947166 3.0
  endloop
endfacet
facet normal -0.0 -0.0 1.0
  outer loop
    vertex 49.000000000000014 49.000000000000014 3.0
    vertex 28.717424462528754 33.523847327947166 3.0
    vertex 29.348819333749024 33.693029073795785 3.0
  endloop
endfacet
facet normal -0.0 -0.0 1.0
  outer loop
    vertex 49.000000000000014 49.000000000000014 3.0
    vertex 29.348819333749024 33.693029073795785 3.0
    vertex 30.000000000000014 33.75000000000001 3.0
  endloop
endfacet
facet normal -0.0 -0.0 1.0
  outer loop
    vertex 49.000000000000014 49.000000000000014 3.0
    vertex 30.000000000000014 33.75000000000001 3.0
    vertex 30.651180666251 33.693029073795785 3.0
  endloop
endfacet
facet normal -0.0 -0.0 1.0
  outer loop
    vertex 49.000000000000014 49.000000000000014 3.0
    vertex 30.651180666251 33.693029073795785 3.0
    vertex 31.28257553747127 33.523847327947166 3.0
  endloop
endfacet
facet normal -0.0 -0.0 1.0
  outer loop
    vertex 49.000000000000014 49.000000000000014 3.0
    vertex 31.28257553747127 33.523847327947166 3.0
    vertex 31.875000000000014 33.24759526419165 3.0
  endloop
endfacet
facet normal -0.0 -0.0 1.0
  outer loop
    vertex 49.000000000000014 49.000000000000014 3.0
    vertex 31.875000000000014 33.24759526419165 3.0
    vertex 32.41045353632453 32.87266666169617 3.0
  endloop
endfacet
facet normal -0.0 -0.0 1.0
  outer loop
    vertex 49.000000000000014 49.000000000000014 3.0
    vertex 32.41045353632453 32.87266666169617 3.0
    vertex 32.87266666169618 32.41045353632453 3.0
  endloop
endfacet
facet normal -0.0 -0.0 1.0
  outer loop
    vertex 49.000000000000014 49.000000000000014 3.0
    vertex 32.87266666169618 32.41045353632453 3.0
    vertex 33.24759526419165 31.87500000000001 3.0
  endloop
endfacet
facet normal -0.0 -0.0 1.0
  outer loop
    vertex 49.000000000000014 49.000000000000014 3.0
    vertex 33.24759526419165 31.87500000000001 3.0
    vertex 33.523847327947166 31.282575537471264 3.0
  endloop
endfacet
facet normal -0.0 -0.0 1.0
  outer loop
    vertex 49.000000000000014 49.000000000000014 3.0
    vertex 33.523847327947166 31.282575537471264 3.0
    vertex 33.69302907379579 30.651180666250998 3.0
  endloop
endfacet
facet normal -0.0 -0.0 1.0
  outer loop
    vertex 49.000000000000014 49.000000000000014 3.0
    vertex 33.69302907379579 30.651180666250998 3.0
    vertex 33.750000000000014 30.000000000000007 3.0
  endloop
endfacet
facet normal -0.0 -0.0 1.0
  outer loop
    vertex 49.000000000000014 49.000000000000014 3.0
    vertex 33.750000000000014 30.000000000000007 3.0
    vertex 37.250000000000014 32.00000000000001 3.0
  endloop
endfacet
facet normal -0.0 -0.0 1.0
  outer loop
    vertex 37.250000000000014 32.00000000000001 3.0
    vertex 33.750000000000014 30.000000000000007 3.0
    vertex 37.250000000000014 28.000000000000004 3.0
  endloop
endfacet
facet normal -0.0 -0.0 1.0
  outer loop
    vertex 49.000000000000014 49.000000000000014 3.0
    vertex 37.250000000000014 32.00000000000001 3.0
    vertex 39.750000000000014 32.00000000000001 3.0
  endloop
endfacet
facet normal -0.0 -0.0 1.0
  outer loop
    vertex 49.000000000000014 49.000000000000014 3.0
    vertex 39.750000000000014 32.00000000000001 3.0
    vertex 49.000000000000014 11.0 3.0
  endloop
endfacet
facet normal -0.0 -0.0 1.0
  outer loop
    vertex 49.000000000000014 49.000000000000014 3.0
    vertex 49.000000000000014 11.0 3.0
    vertex 49.000000000000014 18.0 3.0
  endloop
endfacet
facet normal -0.0 -0.0 1.0
  outer loop
    vertex 49.000000000000014 49.000000000000014 3.0
    vertex 49.000000000000014 18.0 3.0
    vertex 49.000000000000014 42.0 3.0
  endloop
endfacet
facet normal 0.0 -1.0 0.0
  outer loop
    vertex 11.0 42.000000000000014 20.0
    vertex 11.0 42.000000000000014 3.0
    vertex 18.0 42.000000000000014 20.0
  endloop
endfacet
facet normal 0.9246780984747159 4.2239831389704853e-17 -0.38074980525429497
  outer loop
    vertex 11.0 49.000000000000014 3.0
    vertex 18.0 42.000000000000014 20.0
    vertex 11.0 42.000000000000014 3.0
  endloop
endfacet
facet normal 0.9246780984747159 4.2239831389704853e-17 -0.38074980525429497
  outer loop
    vertex 18.0 42.000000000000014 20.0
    vertex 11.0 49.000000000000014 3.0
    vertex 18.0 49.000000000000014 20.0
  endloop
endfacet
facet normal 0.0 -1.0 0.0
  outer loop
    vertex 49.000000000000014 49.000000000000014 3.0
    vertex 35.0 49.000000000000014 7.000000000000001
    vertex 11.0 49.000000000000014 3.0
  endloop
endfacet
facet normal 0.0 -1.0 0.0
  outer loop
    vertex 35.0 49.000000000000014 7.000000000000001
    vertex 49.000000000000014 49.000000000000014 3.0
    vertex 42.00000000000001 49.000000000000014 20.0
  endloop
endfacet
facet normal 0.0 -1.0 0.0
  outer loop
    vertex 35.0 49.000000000000014 7.000000000000001
    vertex 42.00000000000001 49.000000000000014 20.0
    vertex 35.0 49.000000000000014 20.0
  endloop
endfacet
facet normal 0.0 -1.0 0.0
  outer loop
    vertex 11.0 49.000000000000014 3.0
    vertex 25.0 49.000000000000014 7.000000000000001
    vertex 18.0 49.000000000000014 20.0
  endloop
endfacet
facet normal 0.0 -1.0 0.0
  outer loop
    vertex 25.0 49.000000000000014 7.000000000000001
    vertex 11.0 49.000000000000014 3.0
    vertex 35.0 49.000000000000014 7.000000000000001
  endloop
endfacet
facet normal 0.0 -1.0 0.0
  outer loop
    vertex 18.0 49.000000000000014 20.0
    vertex 25.0 49.000000000000014 7.000000000000001
    vertex 25.0 49.000000000000014 20.0
  endloop
endfacet
facet normal 0.0 -1.0 0.0
  outer loop
    vertex 42.00000000000001 42.0 20.0
    vertex 49.000000000000014 42.0 3.0
    vertex 49.000000000000014 42.0 20.0
  endloop
endfacet
facet normal -0.9246780984747159 -0.0 -0.380749805254295
  outer loop
    vertex 42.00000000000001 49.000000000000014 20.0
    vertex 49.000000000000014 42.0 3.0
    vertex 42.00000000000001 42.0 20.0
  endloop
endfacet
facet normal -0.9246780984747159 -0.0 -0.380749805254295
  outer loop
    vertex 49.000000000000014 42.0 3.0
    vertex 42.00000000000001 49.000000000000014 20.0
    vertex 49.000000000000014 49.000000000000014 3.0
  endloop
endfacet
facet normal 0.0 1.0 0.0
  outer loop
    vertex 49.000000000000014 18.0 20.0
    vertex 49.000000000000014 18.0 3.0
    vertex 42.000000000000014 18.0 20.0
  endloop
endfacet
facet normal -0.924678098474716 -0.0 -0.38074980525429475
  outer loop
    vertex 42.000000000000014 18.0 20.0
    vertex 49.000000000000014 11.0 3.0
    vertex 42.000000000000014 11.0 20.0
  endloop
endfacet
facet normal -0.924678098474716 -0.0 -0.38074980525429475
  outer loop
    vertex 49.000000000000014 11.0 3.0
    vertex 42.000000000000014 18.0 20.0
    vertex 49.000000000000014 18.0 3.0
  endloop
endfacet
facet normal -0.0 1.0 -0.0
  outer loop
    vertex 18.0 11.0 20.0
    vertex 49.000000000000014 11.0 3.0
    vertex 11.0 11.0 3.0
  endloop
endfacet
facet normal -0.0 1.0 -0.0
  outer loop
    vertex 49.000000000000014 11.0 3.0
    vertex 18.0 11.0 20.0
    vertex 42.000000000000014 11.0 20.0
  endloop
endfacet
facet normal 0.0 1.0 0.0
  outer loop
    vertex 18.0 17.999999999999996 20.0
    vertex 11.0 17.999999999999996 3.0
    vertex 11.0 17.999999999999996 20.0
  endloop
endfacet
facet normal 0.9246780984747159 0.0 -0.38074980525429486
  outer loop
    vertex 11.0 17.999999999999996 3.0
    vertex 18.0 11.0 20.0
    vertex 11.0 11.0 3.0
  endloop
endfacet
facet normal 0.9246780984747159 0.0 -0.38074980525429486
  outer loop
    vertex 18.0 11.0 20.0
    vertex 11.0 17.999999999999996 3.0
    vertex 18.0 17.999999999999996 20.0
  endloop
endfacet
endsolid Knob
